<?xml version="1.0" encoding="UTF-8"?>
<svg id="Layer_1" xmlns="http://www.w3.org/2000/svg" version="1.1" viewBox="0 0 512 512">
  <!-- Generator: Adobe Illustrator 29.8.2, SVG Export Plug-In . SVG Version: 2.1.1 Build 3)  -->
  <defs>
    <style>
      .st0 {
        fill: #2f4b3c;
      }

      .st1 {
        fill: #f7edda;
      }
    </style>
  </defs>
  <rect class="st1" width="512" height="512"/>
  <path class="st0" d="M372.71,404.85h-12.42c-10.36-.17-20.72-1.05-31.01-.41-9.66.87-18.73-4.73-22.28-13.74-9.59-18.87-18.94-37.94-28.78-56.77-7.68-14.91-15.71-29.62-23.67-44.37-4.76-10.7-16.04-16.96-27.63-15.33-9.73.87-19.53.84-29.96,1.07-2.69.06-4.95,2.17-5.17,4.85-3.29,39.73-4.27,79.62-2.92,119.46.08,2.4-1.48,4.5-3.76,5.23-.61.2-1.23.37-1.85.53-.4.1-.82.16-1.24.17-12.58.58-25.12,1.08-37.63,1.49-.86,0-1.73-.84-4-2.04-.62-3.92-1.02-7.88-1.2-11.85,0-67.66.11-135.32.34-202.97,0-23.64-.31-47.3-.29-70.92,0-12.44,1.39-13.99,13.23-14.05,35.98-.22,71.95-.17,107.93-.24h29.57c23.11.53,44.59,12.01,57.87,30.94,5.48,8.14,10.04,16.87,13.6,26.02,1.21,2.2,1.81,4.68,1.74,7.2-.19,19.13-2.58,38.17-7.12,56.75-.05.22-.12.44-.18.65-5.95,17.83-18.72,32.57-35.53,41-13.02,6.96-14.25,8.99-7.91,21.7,10.32,20.72,21.92,40.77,33,61.09,9,16.48,17.98,32.94,26.93,49.38.7.6.34,1.75.34,5.16h0ZM189.09,160.46c-.5,16.34-1.41,32-1.27,47.61-.38,3.33.77,6.65,3.12,9.03,2.35,2.38,5.66,3.57,8.99,3.23,28.08.55,56.17.77,84.25.51,7.68.15,14.75-4.19,18.08-11.11,5.58-11.12,7.33-23.77,4.96-35.98-1.53-8-8.25-13.98-16.38-14.56-32.02-.38-64.06-.38-96.1-.46-1.95.35-3.85.92-5.67,1.73h0Z"/>
</svg>